<svg width="29" height="22" viewBox="0 0 29 22" fill="none" xmlns="http://www.w3.org/2000/svg">
<path d="M28.42 0H0.58C0.426174 0 0.278649 0.0609962 0.169878 0.16957C0.0611071 0.278144 0 0.425401 0 0.578947V20.2632C0 20.7238 0.183321 21.1656 0.509634 21.4913C0.835948 21.817 1.27852 22 1.74 22H27.26C27.7215 22 28.1641 21.817 28.4904 21.4913C28.8167 21.1656 29 20.7238 29 20.2632V0.578947C29 0.425401 28.9389 0.278144 28.8301 0.16957C28.7213 0.0609962 28.5738 0 28.42 0ZM14.5 12.5342L2.0735 1.15789H26.9265L14.5 12.5342ZM11.107 11L1.16 20.1039V1.89605L11.107 11ZM11.9625 11.7816L14.1085 13.7355C14.2138 13.8364 14.3541 13.8927 14.5 13.8927C14.6459 13.8927 14.7862 13.8364 14.8915 13.7355L17.0375 11.7816L26.9265 20.8421H2.0735L11.9625 11.7816ZM17.893 11L27.84 1.89605V20.1039L17.893 11Z" fill="#E0C889"/>
</svg>
