<svg width="33" height="25" viewBox="0 0 33 25" fill="none" xmlns="http://www.w3.org/2000/svg">
<path d="M32.34 0H0.66C0.484957 0 0.317084 0.0693138 0.19331 0.192693C0.0695356 0.316072 0 0.48341 0 0.657895V23.0263C0 23.5498 0.208607 24.0518 0.579929 24.4219C0.951251 24.7921 1.45487 25 1.98 25H31.02C31.5451 25 32.0487 24.7921 32.4201 24.4219C32.7914 24.0518 33 23.5498 33 23.0263V0.657895C33 0.48341 32.9305 0.316072 32.8067 0.192693C32.6829 0.0693138 32.515 0 32.34 0ZM16.5 14.2434L2.3595 1.31579H30.6405L16.5 14.2434ZM12.639 12.5L1.32 22.8454V2.1546L12.639 12.5ZM13.6125 13.3882L16.0545 15.6086C16.1743 15.7231 16.3339 15.7871 16.5 15.7871C16.6661 15.7871 16.8257 15.7231 16.9455 15.6086L19.3875 13.3882L30.6405 23.6842H2.3595L13.6125 13.3882ZM20.361 12.5L31.68 2.1546V22.8454L20.361 12.5Z" fill="black"/>
</svg>
