<svg width="25" height="25" viewBox="0 0 25 25" fill="none" xmlns="http://www.w3.org/2000/svg">
<path d="M5.71011 2.07546C5.61787 1.95681 5.50144 1.85914 5.36855 1.78894C5.23566 1.71874 5.08936 1.67762 4.93936 1.66831C4.78936 1.659 4.63909 1.68171 4.49854 1.73494C4.35799 1.78816 4.23038 1.87069 4.12417 1.97702L2.50855 3.59421C1.75386 4.35046 1.47574 5.42077 1.80542 6.35984C3.17377 10.2467 5.39963 13.7756 8.31792 16.6848C11.2272 19.6031 14.7561 21.8289 18.6429 23.1973C19.582 23.527 20.6523 23.2489 21.4085 22.4942L23.0242 20.8786C23.1305 20.7724 23.213 20.6448 23.2663 20.5042C23.3195 20.3637 23.3422 20.2134 23.3329 20.0634C23.3236 19.9134 23.2825 19.7671 23.2123 19.6342C23.1421 19.5013 23.0444 19.3849 22.9257 19.2926L19.321 16.4895C19.1943 16.3912 19.0468 16.323 18.8899 16.2899C18.7329 16.2569 18.5704 16.26 18.4148 16.2989L14.9929 17.1536C14.5362 17.2677 14.0576 17.2617 13.6039 17.136C13.1502 17.0103 12.7368 16.7693 12.4039 16.4364L8.56636 12.5973C8.23319 12.2646 7.99187 11.8512 7.86591 11.3975C7.73995 10.9438 7.73365 10.4652 7.84761 10.0083L8.70386 6.5864C8.74278 6.43077 8.74584 6.26833 8.71282 6.11134C8.6798 5.95435 8.61155 5.80691 8.51324 5.68015L5.71011 2.07546ZM2.94449 0.798898C3.21792 0.525382 3.5464 0.313165 3.90814 0.176338C4.26988 0.0395111 4.65658 -0.0187941 5.04258 0.00529381C5.42858 0.0293817 5.80504 0.135312 6.14696 0.31605C6.48888 0.496787 6.78843 0.748198 7.02574 1.05359L9.82886 4.65671C10.3429 5.31765 10.5242 6.17859 10.321 6.99109L9.46636 10.413C9.42217 10.5902 9.42456 10.7758 9.47329 10.9519C9.52202 11.1279 9.61545 11.2884 9.74449 11.4176L13.5835 15.2567C13.713 15.386 13.8737 15.4796 14.05 15.5283C14.2264 15.5771 14.4123 15.5793 14.5898 15.5348L18.0101 14.6801C18.4111 14.5799 18.8296 14.5721 19.234 14.6574C19.6384 14.7426 20.0181 14.9187 20.3445 15.1723L23.9476 17.9755C25.2429 18.9833 25.3617 20.8973 24.2023 22.0551L22.5867 23.6708C21.4304 24.827 19.7023 25.3348 18.0914 24.7676C13.9682 23.3169 10.2246 20.9565 7.13824 17.8614C4.04337 14.7755 1.68294 11.0324 0.231986 6.90984C-0.333639 5.30046 0.174173 3.57077 1.33042 2.41452L2.94605 0.798898H2.94449Z" fill="#E0C889"/>
</svg>
