<svg width="0" height="0" class="hidden">
  
  <symbol width="57" height="71" viewBox="0 0 57 71" id="result4" xmlns="http://www.w3.org/2000/svg">
    <path d="M48.9841 42.5966C53.4114 42.5966 57 46.1727 57 50.5838V53.7969C57 57.6794 55.2992 61.3684 52.3426 63.8974C46.7657 68.6681 38.7844 71 28.4884 71C18.1941 71 10.2181 68.6691 4.65017 63.8991C1.69812 61.3702 0 57.684 0 53.8047V50.5838C0 46.1727 3.58883 42.5966 8.01588 42.5966H48.9841ZM48.9841 47.9214H8.01588C6.54017 47.9214 5.34392 49.1135 5.34392 50.5838V53.8047C5.34392 56.1323 6.36279 58.3439 8.13402 59.8615C12.6161 63.7011 19.3709 65.6752 28.4884 65.6752C37.6083 65.6752 44.3698 63.7 48.8619 59.8572C50.6354 58.3397 51.6561 56.1263 51.6561 53.7969V50.5838C51.6561 49.1135 50.4598 47.9214 48.9841 47.9214ZM28.1268 0.0243168L28.4895 0C29.8422 0 30.9601 1.0016 31.1369 2.30115L31.1614 2.66242L31.1586 5.32129L43.6295 5.3231C48.0564 5.3231 51.6454 8.89912 51.6454 13.3104V29.3012C51.6454 33.7123 48.0564 37.2884 43.6295 37.2884H13.3472C8.92011 37.2884 5.33127 33.7123 5.33127 29.3012V13.3104C5.33127 8.89912 8.92011 5.3231 13.3472 5.3231L25.8147 5.32129L25.8175 2.66242C25.8175 1.31453 26.8225 0.200604 28.1268 0.0243168L28.4895 0L28.1268 0.0243168ZM43.6295 10.6479H13.3472C11.8715 10.6479 10.6752 11.8399 10.6752 13.3104V29.3012C10.6752 30.7715 11.8715 31.9636 13.3472 31.9636H43.6295C45.1051 31.9636 46.3015 30.7715 46.3015 29.3012V13.3104C46.3015 11.8399 45.1051 10.6479 43.6295 10.6479ZM20.4699 15.9728C22.9279 15.9728 24.9204 17.9583 24.9204 20.4076C24.9204 22.8569 22.9279 24.8424 20.4699 24.8424C18.0118 24.8424 16.0191 22.8569 16.0191 20.4076C16.0191 17.9583 18.0118 15.9728 20.4699 15.9728ZM36.4758 15.9728C38.934 15.9728 40.9266 17.9583 40.9266 20.4076C40.9266 22.8569 38.934 24.8424 36.4758 24.8424C34.0176 24.8424 32.025 22.8569 32.025 20.4076C32.025 17.9583 34.0176 15.9728 36.4758 15.9728Z" fill="#B4D326"/>
  </symbol>

  <symbol width="44" height="23" viewBox="0 0 44 23" id="arrow" xmlns="http://www.w3.org/2000/svg">
    <path d="M43.0607 12.3019C43.6464 11.7161 43.6464 10.7663 43.0607 10.1806L33.5147 0.634609C32.9289 0.0488224 31.9792 0.0488224 31.3934 0.634609C30.8076 1.2204 30.8076 2.17014 31.3934 2.75593L39.8787 11.2412L31.3934 19.7265C30.8076 20.3123 30.8076 21.262 31.3934 21.8478C31.9792 22.4336 32.9289 22.4336 33.5147 21.8478L43.0607 12.3019ZM0 12.7412H42V9.74121H0V12.7412Z"/>
  </symbol>





</svg>