<svg width="24" height="25" viewBox="0 0 24 25" fill="none" xmlns="http://www.w3.org/2000/svg">
<path d="M20.5025 3.63756C19.3968 2.47997 18.0798 1.56215 16.6283 0.937635C15.1768 0.313116 13.6198 -0.00560013 12.0482 7.44618e-05C5.46332 7.44618e-05 0.0964826 5.56256 0.0964826 12.3875C0.0964826 14.575 0.651256 16.7 1.68844 18.575L0 25L6.33166 23.275C8.0804 24.2625 10.0462 24.7875 12.0482 24.7875C18.6332 24.7875 24 19.225 24 12.4C24 9.08755 22.7578 5.97506 20.5025 3.63756ZM12.0482 22.6875C10.2633 22.6875 8.51457 22.1875 6.98291 21.25L6.6211 21.025L2.85829 22.05L3.8593 18.25L3.61809 17.8625C2.62643 16.2212 2.09987 14.3241 2.09849 12.3875C2.09849 6.71255 6.5608 2.08757 12.0362 2.08757C14.6894 2.08757 17.1859 3.16257 19.0553 5.11256C19.9809 6.06751 20.7144 7.20338 21.2133 8.45433C21.7123 9.70528 21.9667 11.0464 21.9618 12.4C21.9859 18.075 17.5236 22.6875 12.0482 22.6875ZM17.4995 14.9875C17.198 14.8375 15.7266 14.0875 15.4613 13.975C15.1839 13.875 14.991 13.825 14.7859 14.125C14.5809 14.4375 14.0141 15.1375 13.8452 15.3375C13.6764 15.55 13.4955 15.575 13.194 15.4125C12.8925 15.2625 11.9276 14.925 10.794 13.875C9.90151 13.05 9.31055 12.0375 9.12965 11.725C8.9608 11.4125 9.10553 11.25 9.26231 11.0875C9.39497 10.95 9.56382 10.725 9.70854 10.55C9.85327 10.375 9.91357 10.2375 10.01 10.0375C10.1065 9.82504 10.0583 9.65005 9.98593 9.50005C9.91357 9.35005 9.31055 7.82505 9.06935 7.20005C8.82814 6.60006 8.57487 6.67505 8.39397 6.66255H7.81507C7.61005 6.66255 7.29648 6.73755 7.01909 7.05005C6.75377 7.36255 5.98191 8.11255 5.98191 9.63755C5.98191 11.1625 7.05528 12.6375 7.2 12.8375C7.34472 13.05 9.31055 16.175 12.3015 17.5125C13.0131 17.8375 13.5678 18.025 14.002 18.1625C14.7136 18.4 15.3648 18.3625 15.8834 18.2875C16.4623 18.2 17.6563 17.5375 17.8975 16.8125C18.1508 16.0875 18.1508 15.475 18.0663 15.3375C17.9819 15.2 17.801 15.1375 17.4995 14.9875Z" fill="#E0C889"/>
</svg>
